<svg id="visual" viewBox="0 0 5000 50" width="5000" height="50" xmlns="http://www.w3.org/2000/svg" xmlns:xlink="http://www.w3.org/1999/xlink" version="1.1"><path d="M0 29L26.8 27.2C53.7 25.3 107.3 21.7 161.2 21.5C215 21.3 269 24.7 322.8 26.2C376.7 27.7 430.3 27.3 484 25.3C537.7 23.3 591.3 19.7 645 17.7C698.7 15.7 752.3 15.3 806.2 18.3C860 21.3 914 27.7 967.8 29.7C1021.7 31.7 1075.3 29.3 1129 25.8C1182.7 22.3 1236.3 17.7 1290.2 15.2C1344 12.7 1398 12.3 1451.8 13C1505.7 13.7 1559.3 15.3 1613 18.8C1666.7 22.3 1720.3 27.7 1774 27.7C1827.7 27.7 1881.3 22.3 1935.2 22C1989 21.7 2043 26.3 2096.8 26.7C2150.7 27 2204.3 23 2258 22.7C2311.7 22.3 2365.3 25.7 2419.2 25.3C2473 25 2527 21 2580.8 19.5C2634.7 18 2688.3 19 2742 19.3C2795.7 19.7 2849.3 19.3 2903.2 18.7C2957 18 3011 17 3064.8 16.2C3118.7 15.3 3172.3 14.7 3226 17C3279.7 19.3 3333.3 24.7 3387 25.7C3440.7 26.7 3494.3 23.3 3548.2 20.5C3602 17.7 3656 15.3 3709.8 14.7C3763.7 14 3817.3 15 3871 18.3C3924.7 21.7 3978.3 27.3 4032.2 26.8C4086 26.3 4140 19.7 4193.8 16.3C4247.7 13 4301.3 13 4355 15.3C4408.7 17.7 4462.3 22.3 4516 26C4569.7 29.7 4623.3 32.3 4677.2 33.8C4731 35.3 4785 35.7 4838.8 35.3C4892.7 35 4946.3 34 4973.2 33.5L5000 33L5000 0L4973.2 0C4946.3 0 4892.7 0 4838.8 0C4785 0 4731 0 4677.2 0C4623.3 0 4569.7 0 4516 0C4462.3 0 4408.7 0 4355 0C4301.3 0 4247.7 0 4193.8 0C4140 0 4086 0 4032.2 0C3978.3 0 3924.7 0 3871 0C3817.3 0 3763.7 0 3709.8 0C3656 0 3602 0 3548.2 0C3494.3 0 3440.7 0 3387 0C3333.3 0 3279.7 0 3226 0C3172.3 0 3118.7 0 3064.8 0C3011 0 2957 0 2903.2 0C2849.3 0 2795.7 0 2742 0C2688.3 0 2634.7 0 2580.8 0C2527 0 2473 0 2419.2 0C2365.3 0 2311.7 0 2258 0C2204.3 0 2150.7 0 2096.8 0C2043 0 1989 0 1935.2 0C1881.3 0 1827.7 0 1774 0C1720.3 0 1666.7 0 1613 0C1559.3 0 1505.7 0 1451.8 0C1398 0 1344 0 1290.2 0C1236.3 0 1182.7 0 1129 0C1075.3 0 1021.7 0 967.8 0C914 0 860 0 806.2 0C752.3 0 698.7 0 645 0C591.3 0 537.7 0 484 0C430.3 0 376.7 0 322.8 0C269 0 215 0 161.2 0C107.3 0 53.7 0 26.8 0L0 0Z" fill="#009473" stroke-linecap="round" stroke-linejoin="miter"></path></svg>